<?xml version="1.0" encoding="utf-8"?><svg version="1.1" id="Layer_1" xmlns="http://www.w3.org/2000/svg" xmlns:xlink="http://www.w3.org/1999/xlink" x="0px" y="0px"  viewBox="0 0 166 577" style="enable-background:new 0 0 166 577;" xml:space="preserve"><style type="text/css"> .st0{fill:none;stroke:#AEAEAE;stroke-width:4;stroke-linecap:round;stroke-linejoin:round;} .st1{fill:#DB3236;} </style><g transform="matrix( 1, 0, 0, 1, 0,0) "><g><path class="st0" d="M81.1,237.7c-4,11.3-7.1,21.6-9.4,30.8c-4.5,18.3-6.9,36.3-7.2,54 c-0.2,17.7,1.6,34.5,5.4,50.4c1.6,6.7,4,14.5,7.2,23.5c1.7,4.9,3.7,10.1,5.9,15.7c6.8,17.2,11.2,29.8,13.4,37.6 c4.2,14.9,6.4,30.1,6.7,45.6c0.1,6-0.2,12-0.9,18.1c-1,7.9-2.8,16-5.2,24c-2.3,7.5-6.8,19.2-13.7,35.3"/></g></g><g transform="matrix( 1, 0, 0, 1, 0,0) "><g><g><path class="st1" d="M163.1,117c3.4-13.3,4-27,1.6-41c-1.8-10.5-5.1-20.4-9.8-29.5c-1.4-2.7-2.9-5.4-4.6-8 c-7.5-11.7-16.7-20.9-27.8-27.6C110.7,3.8,97.9,0.1,84.1,0C71-0.1,58.5,3.2,46.6,9.9c-11.4,6.5-21.1,15.4-29,26.6 c-2.3,3.2-4.3,6.5-6.1,9.9c-0.6,1-1.1,2-1.6,3c-0.2,0.3-0.3,0.7-0.5,1C5.8,58,3.2,65.9,1.6,74.2c-2.7,14.5-2.1,28.7,1.9,42.8 c4.1,14.3,10,28.6,18,42.7c3.4,6,7.1,12,11.2,17.9c10.6,15.6,23.9,31.4,39.8,47.3c2.3,2.3,4.7,4.6,7.1,6.9l-8,8.1h22l-7-8.2 c20.4-20.6,36.5-39.4,48.4-56.5C148.9,155.2,158.2,135.8,163.1,117z"/></g></g></g></svg>
